HIERARCHY
ROOT Hips
{
	OFFSET 0.00000 0.00000 0.00000
	CHANNELS 6 Xposition Yposition Zposition Zrotation Yrotation Xrotation 
	JOINT LHipJoint
	{
		OFFSET 0 0 0
		CHANNELS 3 Zrotation Yrotation Xrotation
		JOINT LeftHip
		{
			OFFSET 1.66553 -1.82942 0.76350
			CHANNELS 3 Zrotation Yrotation Xrotation
			JOINT LeftKnee
			{
				OFFSET 2.41740 -6.64177 0.00000
				CHANNELS 3 Zrotation Yrotation Xrotation
				JOINT LeftAnkle
				{
					OFFSET 2.71614 -7.46254 0.00000
					CHANNELS 3 Zrotation Yrotation Xrotation
					JOINT LeftToe
					{
						OFFSET 0.08005 -0.21993 1.82495
						CHANNELS 3 Zrotation Yrotation Xrotation
						End Site
						{
							OFFSET 0.00000 -0.00000 0.93441
						}
					}
				}
			}
		}
	}
	JOINT RHipJoint
	{
		OFFSET 0 0 0
		CHANNELS 3 Zrotation Yrotation Xrotation
		JOINT RightHip
		{
			OFFSET -1.63725 -1.82942 0.76350
			CHANNELS 3 Zrotation Yrotation Xrotation
			JOINT RightKnee
			{
				OFFSET -2.40538 -6.60872 0.00000
				CHANNELS 3 Zrotation Yrotation Xrotation
				JOINT RightAnkle
				{
					OFFSET -2.73312 -7.50919 0.00000
					CHANNELS 3 Zrotation Yrotation Xrotation
					JOINT RightToe
					{
						OFFSET -0.15567 -0.42769 1.93504
						CHANNELS 3 Zrotation Yrotation Xrotation
						End Site
						{
							OFFSET -0.00000 -0.00000 1.00100
						}
					}
				}
			}
		}
	}
	JOINT lowerback
	{
		OFFSET 0 0 0
		CHANNELS 3 Zrotation Yrotation Xrotation
		JOINT Chest
		{
			OFFSET 0.00326 2.30118 -0.13017
			CHANNELS 3 Zrotation Yrotation Xrotation
			JOINT Chest2
			{
				OFFSET 0.02887 2.30677 0.00834
				CHANNELS 3 Zrotation Yrotation Xrotation
				JOINT lowerneck
				{
					OFFSET 0 0 0
					CHANNELS 3 Zrotation Yrotation Xrotation
					JOINT Neck
					{
						OFFSET 0.12946 1.68326 0.00713
						CHANNELS 3 Zrotation Yrotation Xrotation
						JOINT Head
						{
							OFFSET -0.24364 1.67243 -0.16079
							CHANNELS 3 Zrotation Yrotation Xrotation
							End Site
							{
								OFFSET -0.09229 1.70819 -0.06383
							}
						}
					}
				}
				JOINT LeftCollar
				{
					OFFSET 0 0 0
					CHANNELS 3 Zrotation Yrotation Xrotation
					JOINT LeftShoulder
					{
						OFFSET 3.28104 0.69567 -0.00556
CHANNELS 3 Zrotation Xrotation Yrotation
						JOINT LeftElbow
						{
OFFSET 0 -5.707060 -0.000000
CHANNELS 3 Zrotation Xrotation Yrotation
							JOINT LeftWrist
							{
OFFSET 0 -3.332430 0.000000
CHANNELS 3 Zrotation Xrotation Yrotation
								JOINT lhand
								{
									OFFSET 0 0 0
CHANNELS 3 Zrotation Xrotation Yrotation
									JOINT LFingers
									{
OFFSET 0 -0.792690 0.000000
CHANNELS 3 Zrotation Xrotation Yrotation
										End Site
										{
OFFSET 0 -0.639090 0.000000
										}
									}
								}
								JOINT LThumb
								{
OFFSET 0 0.000000 0.000000
CHANNELS 3 Zrotation Xrotation Yrotation
									End Site
									{
OFFSET 0 -0.648840 0.648840
									}
								}
							}
						}
					}
				}
				JOINT RightCollar
				{
					OFFSET 0 0 0
					CHANNELS 3 Zrotation Yrotation Xrotation
					JOINT RightShoulder
					{
						OFFSET -3.40955 0.64424 0.14010
CHANNELS 3 Zrotation Xrotation Yrotation
						JOINT RightElbow
						{
OFFSET 0 -5.881760 -0.000000
CHANNELS 3 Zrotation Xrotation Yrotation
							JOINT RightWrist
							{
OFFSET 0 -3.281560 0.000000
CHANNELS 3 Zrotation Xrotation Yrotation
								JOINT rhand
								{
									OFFSET 0 0 0
CHANNELS 3 Zrotation Xrotation Yrotation
									JOINT RFingers
									{
OFFSET 0 -0.863130 0.000000
CHANNELS 3 Zrotation Xrotation Yrotation
										End Site
										{
OFFSET 0 -0.695870 0.000000
										}
									}
								}
								JOINT RThumb
								{
OFFSET 0 0.000000 0.000000
CHANNELS 3 Zrotation Xrotation Yrotation
									End Site
									{
OFFSET 0 -0.706500 0.706500
									}
								}
							}
						}
					}
				}
			}
		}
	}
}
MOTION
Frames: 7
Frame Time: 0.008333333333333333
11.574300 13.997100 -18.817100 -2.493100 21.724900 15.369400 0.000000 0.000000 0.000000 18.004500 -5.653700 -68.558800 10.004000 17.412100 59.501800 0.168600 -9.293300 -9.194300 6.903500 -15.250100 -48.508500 0.000000 0.000000 0.000000 -3.083400 -10.385800 -45.517700 -14.594100 -19.284400 74.011000 -4.111700 -2.357700 -39.289700 -2.961000 10.631600 -31.047300 1.387100 1.218600 27.882200 -1.484100 1.951200 8.927700 -3.048600 1.034300 -5.310000 15.996400 7.820300 6.384600 -24.019100 8.807800 -23.137300 -11.426000 5.384600 -5.800000 -0.000000 0.000000 0.000000 15.184300 19.421900 -9.769600 95.033500 -59.904000 64.357700 6.556100 -23.100400 -19.660000 0.000000 0.000000 0.000000 -7.125000 0.000000 0.000000 -21.076700 48.567100 1.933900 -0.000000 0.000000 0.000000 -18.248600 2.705200 21.011900 -129.454200 -53.213300 -93.389300 -27.024100 -60.018600 -13.300800 0.000000 0.000000 0.000000 7.125000 0.000000 -0.000000 0.227900 15.117200 0.160600
11.959060 13.925495 -18.577343 -4.145453 22.429827 17.446896 0.000000 0.000000 0.000000 18.528927 -3.200252 -73.048716 11.481765 18.162837 64.336418 0.586211 -4.627098 -13.632311 6.202927 -14.621996 -45.790508 0.000000 0.000000 0.000000 -1.727637 -11.856550 -46.026415 -13.960077 -19.101805 72.082545 -4.226188 -1.021957 -39.396118 -2.876563 10.492221 -30.586209 0.658814 1.106830 28.416497 -1.923820 1.630376 10.326948 -2.999085 0.921996 -4.023331 14.959583 8.015110 5.945562 -23.299290 8.751842 -26.215276 -11.259427 5.426936 -6.813227 0.000000 0.000000 0.000000 10.590761 20.222490 -13.571996 48.588011 -52.402913 25.052850 -11.141598 -22.688967 -26.162826 0.000000 0.000000 0.000000 -7.125000 0.000000 0.000000 -40.714229 51.421414 7.495332 0.000000 0.000000 0.000000 -11.442049 13.119985 30.729189 -104.337655 -59.204021 -72.383280 -34.659905 -63.639150 -9.610684 0.000000 0.000000 0.000000 7.125000 0.000000 0.000000 -5.418787 18.377160 -3.449611
12.608571 14.015391 -18.122445 -5.678617 23.174579 18.527955 0.000000 0.000000 0.000000 17.593963 -1.238362 -75.304782 12.706735 18.673646 68.211964 0.692463 -5.823018 -14.831440 5.809623 -14.240402 -44.211210 0.000000 0.000000 0.000000 -0.637515 -11.733697 -41.590864 -11.906984 -18.350606 65.693063 -3.910365 -3.329536 -38.679280 -2.649969 10.104824 -29.317580 0.151823 1.311883 27.094761 -3.801595 1.682458 10.690576 -4.735757 1.004549 -2.936129 15.468422 7.115684 7.417155 -19.697565 8.405266 -27.379856 -10.271003 4.858426 -7.818767 0.000000 0.000000 0.000000 13.010381 22.773927 -4.861801 27.476836 -38.627192 9.796484 -29.649778 -24.333281 -29.685153 0.000000 0.000000 0.000000 -7.125000 0.000000 0.000000 -58.277253 50.739105 11.699599 0.000000 0.000000 0.000000 -11.415346 20.942059 37.365347 -62.931378 -57.029560 -36.793257 -29.818529 -59.000967 -17.307867 0.000000 0.000000 0.000000 7.125000 0.000000 0.000000 -1.233227 10.225785 -0.995339
13.455880 14.290558 -17.501918 -7.276208 24.760223 18.836576 0.000000 0.000000 0.000000 15.789556 -0.657497 -74.845885 13.352302 18.905677 70.216199 0.869826 -7.173164 -16.668779 6.234826 -14.651258 -45.915530 0.000000 0.000000 0.000000 1.032324 -10.590648 -32.514853 -8.473706 -16.455209 54.248903 -3.300734 -6.551231 -37.038331 -2.137078 9.145955 -26.253083 0.437260 2.160749 24.361280 -4.923472 2.828307 10.469993 -6.309625 1.625903 -1.687430 15.273022 5.846109 8.810350 -16.990361 7.372001 -26.946533 -9.297866 4.093100 -8.361520 0.000000 0.000000 0.000000 22.669051 24.125432 9.643960 20.480508 -31.215323 5.779091 -32.474553 -26.722279 -33.737003 0.000000 0.000000 0.000000 -7.125000 0.000000 0.000000 -64.471409 52.763197 18.365680 0.000000 0.000000 0.000000 -15.201301 26.516488 35.085566 -33.561141 -43.743107 -13.813501 -3.169764 -34.597423 -23.402971 0.000000 0.000000 0.000000 7.125000 0.000000 0.000000 16.033074 7.272240 14.475461
14.375453 14.748797 -16.785242 -8.204364 26.839707 17.374587 0.000000 0.000000 0.000000 12.937746 -1.270744 -70.502692 13.363205 18.909364 70.249901 1.164792 -10.508369 -19.558174 5.312382 -13.726277 -42.153581 0.000000 0.000000 0.000000 2.899422 -8.086629 -20.689548 -5.610321 -14.039661 43.396740 -1.276508 -13.835386 -30.310764 -0.493979 4.436753 -12.318905 1.107639 2.660596 21.795990 -4.761776 3.630365 9.563847 -6.566668 2.024575 -1.305111 14.363478 4.993779 9.250484 -14.684762 6.653759 -22.872392 -7.983630 3.604956 -7.403958 0.000000 0.000000 0.000000 38.970305 22.321334 21.422205 16.281508 -25.900168 3.768472 -24.429554 -28.845042 -35.797550 0.000000 0.000000 0.000000 -7.125000 0.000000 0.000000 -60.788823 55.640614 21.410399 0.000000 0.000000 0.000000 -25.850985 30.138374 36.375647 -17.818123 -27.917728 -4.466853 15.388751 3.534907 -27.992354 0.000000 0.000000 0.000000 7.125000 0.000000 0.000000 26.152466 3.358942 27.698737
15.287239 15.303524 -16.130802 -7.770337 27.098783 15.791099 0.000000 0.000000 0.000000 8.501212 -2.577339 -62.401158 12.374634 18.544382 67.171373 1.446873 -11.730689 -21.836450 4.106443 -12.300522 -36.803912 0.000000 0.000000 0.000000 3.706468 -5.435983 -18.628023 -6.095362 -14.519523 45.362069 0.541563 -17.924158 -19.880668 -0.120477 -1.918573 5.288141 1.371767 2.145096 19.320578 -4.658329 3.010376 8.589258 -6.352192 1.695788 -1.186839 14.938644 5.076687 8.434967 -14.681541 6.838521 -19.732073 -7.829279 3.647770 -6.202759 0.000000 0.000000 0.000000 56.068520 18.976046 25.308685 14.913302 -24.025098 3.190600 3.978536 -13.341622 -35.790552 0.000000 0.000000 0.000000 -7.125000 0.000000 0.000000 -35.525854 62.260853 15.965495 0.000000 0.000000 0.000000 -42.526566 27.828867 36.240243 -10.509161 -17.531211 -1.625672 31.003160 52.452913 -31.255397 0.000000 0.000000 0.000000 7.125000 0.000000 0.000000 32.914257 -1.520761 41.297020
16.074212 15.922211 -15.535539 -6.373980 25.172162 13.471234 0.000000 0.000000 0.000000 3.101382 -2.388172 -51.492779 10.622353 17.744632 61.548072 1.706336 -9.707932 -23.440956 3.711372 -11.765879 -34.908963 0.000000 0.000000 0.000000 4.952275 -4.433741 -23.493637 -8.100653 -16.192337 52.923732 -0.602144 -8.248699 -19.915444 -0.001628 0.036232 -0.099506 1.325233 1.395580 17.587260 -4.584126 2.002148 7.701463 -5.990439 1.158672 -1.376811 15.851767 5.547939 9.973575 -15.885409 7.677016 -18.418065 -8.403348 4.138234 -5.820643 0.000000 0.000000 0.000000 70.004888 15.265339 21.167918 17.573913 -27.605825 4.351220 28.043417 1.656397 -34.099157 0.000000 0.000000 0.000000 -7.125000 0.000000 0.000000 -6.493750 67.364816 3.501949 0.000000 0.000000 0.000000 -60.188415 20.966124 30.713706 -9.282346 -15.608988 -1.275257 26.285257 56.837049 -23.747258 0.000000 0.000000 0.000000 7.125000 0.000000 0.000000 31.995727 6.191421 34.448765
